<?xml version="1.0" standalone="no"?>
<!DOCTYPE svg PUBLIC "-//W3C//DTD SVG 20010904//EN"
 "http://www.w3.org/TR/2001/REC-SVG-20010904/DTD/svg10.dtd">
<svg version="1.0" xmlns="http://www.w3.org/2000/svg"
 width="260.000000pt" height="260.000000pt" viewBox="0 0 260.000000 260.000000"
 preserveAspectRatio="xMidYMid meet">
<metadata>
Created by potrace 1.14, written by Peter Selinger 2001-2017
</metadata>
<g transform="translate(0.000000,260.000000) scale(0.100000,-0.100000)"
fill="#000000" stroke="none">
<path d="M1055 2295 c-126 -74 -275 -160 -330 -193 -55 -32 -162 -94 -237
-138 l-138 -79 0 -585 0 -586 92 -54 c51 -30 145 -84 208 -120 63 -37 174
-101 245 -142 72 -41 189 -110 262 -152 73 -42 138 -76 145 -76 10 0 403 222
548 310 25 15 125 73 223 130 l177 102 0 72 c2 922 0 1100 -12 1108 -13 8 -76
44 -538 313 -370 215 -388 225 -402 224 -7 0 -116 -61 -243 -134z m343 -42
c257 -149 237 -135 216 -150 -44 -32 -314 -184 -322 -181 -46 18 -322 186
-322 196 0 6 3 12 8 12 4 0 77 41 162 90 85 49 156 90 158 90 1 0 46 -25 100
-57z m-376 -298 c87 -49 157 -94 157 -100 1 -13 -317 -197 -333 -193 -30 8
-325 184 -323 193 5 13 319 196 332 192 6 -1 81 -42 167 -92z m811 44 c40 -23
108 -62 152 -86 44 -25 84 -48 88 -53 5 -4 -66 -51 -157 -104 l-166 -97 -67
39 c-184 106 -249 144 -255 151 -9 8 299 191 320 191 7 0 45 -19 85 -41z
m-366 -306 c142 -82 163 -98 149 -108 -9 -7 -84 -52 -167 -100 l-150 -88 -42
23 c-23 13 -90 52 -148 86 -58 35 -113 66 -122 70 -17 6 -24 34 -9 34 4 0 77
41 162 90 85 49 156 90 158 90 2 0 78 -44 169 -97z m-844 -29 c84 -48 158 -94
165 -102 14 -19 18 -407 3 -416 -5 -3 -53 20 -107 52 -55 32 -126 74 -159 93
l-60 35 -3 212 c-1 117 0 212 4 212 3 0 74 -39 157 -86z m460 -269 l157 -89 0
-213 c0 -200 -1 -213 -17 -204 -10 5 -70 40 -134 78 -64 37 -131 76 -148 85
l-31 17 0 211 c0 117 3 210 8 208 4 -1 78 -43 165 -93z m607 -114 c0 -164 -3
-201 -15 -211 -14 -12 -305 -180 -312 -180 -2 0 -3 92 -3 203 l0 204 153 91
c83 49 158 91 165 91 9 1 12 -45 12 -198z m-1017 -203 l117 -69 0 -209 c0
-116 -2 -210 -4 -210 -3 0 -56 30 -118 67 -62 37 -134 78 -160 92 l-48 26 0
213 0 214 48 -28 c26 -15 100 -58 165 -96z m1467 -91 l0 -202 -82 -50 c-96
-57 -236 -135 -243 -135 -3 0 -5 91 -5 203 l0 203 68 38 c37 21 96 54 132 74
36 19 76 43 89 53 13 11 28 19 32 19 5 0 9 -91 9 -203z m-1027 -162 c65 -37
121 -75 126 -84 10 -19 9 -396 -1 -406 -3 -4 -55 21 -115 56 -59 34 -132 76
-160 93 l-53 30 0 214 0 214 43 -24 c23 -14 95 -55 160 -93z"/>
</g>
</svg>
